<svg width="1440" height="1037" viewBox="0 0 1440 1037" fill="none" xmlns="http://www.w3.org/2000/svg">
<path d="M-37.1516 284.442C-195.346 222.694 -268.655 331.075 -285.536 392.984L-341 979.111L148.534 1037H1400.1L1617.13 979.111C1720.02 756.399 1870.62 228.102 1556.85 130.071C1285.55 45.3116 1062.49 208.061 999.792 337.507C1033.55 261.126 1026.32 81.4922 845.456 19.1171C631.907 -54.5311 531.961 108.363 531.961 108.363C531.961 108.363 531.961 47.7236 474.086 42.8995C433.667 39.5305 408.171 72.182 404.152 91.4784C108.985 -49.385 -13.0366 161.428 -37.1516 284.442Z" fill="url(#paint0_radial_329_4486)"/>
<path d="M1572.85 678.754H-99.3632C-99.3632 678.754 -122.68 470.185 112.857 483.776C112.857 483.776 51.2855 275.969 257.223 318.522C257.223 318.522 293.245 221.985 384.556 281.812C384.556 281.812 536.068 19.0936 816 88.7541C924.5 115.754 920 267.754 881.18 333.129C881.18 333.129 1342 169 1448 509L1475.4 564.816C1591.84 632.391 1572.85 678.754 1572.85 678.754Z" fill="#0055B8"/>
<path d="M164.265 109.877L163.27 110.055C160.61 110.528 158.528 112.61 158.055 115.269L157.878 116.265C157.703 117.245 156.297 117.245 156.123 116.265L155.946 115.269C155.472 112.61 153.39 110.528 150.731 110.055L149.735 109.877C148.755 109.703 148.755 108.297 149.735 108.123L150.731 107.945C153.39 107.472 155.472 105.39 155.946 102.731L156.123 101.735C156.297 100.755 157.703 100.755 157.878 101.735L158.055 102.731C158.528 105.39 160.61 107.472 163.27 107.945L164.265 108.123C165.245 108.297 165.245 109.703 164.265 109.877Z" fill="white"/>
<path d="M106.082 562.097L104.837 562.318C101.513 562.91 98.9104 565.512 98.3185 568.836L98.097 570.081C97.8791 571.306 96.1214 571.306 95.9036 570.081L95.682 568.836C95.0902 565.512 92.4879 562.91 89.1636 562.318L87.919 562.097C86.6937 561.879 86.6937 560.121 87.919 559.903L89.1636 559.682C92.4879 559.09 95.0902 556.488 95.682 553.164L95.9036 551.919C96.1214 550.694 97.8791 550.694 98.097 551.919L98.3185 553.164C98.9104 556.488 101.513 559.09 104.837 559.682L106.082 559.903C107.306 560.121 107.306 561.879 106.082 562.097Z" fill="white"/>
<defs>
<radialGradient id="paint0_radial_329_4486" cx="0" cy="0" r="1" gradientUnits="userSpaceOnUse" gradientTransform="translate(657.359 -704.835) rotate(88.5319) scale(1742.41 3504.98)">
<stop offset="0.201882" stop-color="#EF9C47"/>
<stop offset="0.85411" stop-color="#F9C151"/>
</radialGradient>
</defs>
</svg>
